<!-- <svg xmlns="http://www.w3.org/2000/svg" viewBox="0 0 841.9 595.3"><g fill="#61DAFB"><path d="M666.3 296.5c0-32.5-40.7-63.3-103.1-82.4 14.4-63.6 8-114.2-20.2-130.4-6.5-3.8-14.1-5.6-22.4-5.6v22.3c4.6 0 8.3.9 11.4 2.6 13.6 7.8 19.5 37.5 14.9 75.7-1.1 9.4-2.9 19.3-5.1 29.4-19.6-4.8-41-8.5-63.5-10.9-13.5-18.5-27.5-35.3-41.6-50 32.6-30.3 63.2-46.9 84-46.9V78c-27.5 0-63.5 19.6-99.9 53.6-36.4-33.8-72.4-53.2-99.9-53.2v22.3c20.7 0 51.4 16.5 84 46.6-14 14.7-28 31.4-41.3 49.9-22.6 2.4-44 6.1-63.6 11-2.3-10-4-19.7-5.2-29-4.7-38.2 1.1-67.9 14.6-75.8 3-1.8 6.9-2.6 11.5-2.6V78.5c-8.4 0-16 1.8-22.6 5.6-28.1 16.2-34.4 66.7-19.9 130.1-62.2 19.2-102.7 49.9-102.7 82.3 0 32.5 40.7 63.3 103.1 82.4-14.4 63.6-8 114.2 20.2 130.4 6.5 3.8 14.1 5.6 22.5 5.6 27.5 0 63.5-19.6 99.9-53.6 36.4 33.8 72.4 53.2 99.9 53.2 8.4 0 16-1.8 22.6-5.6 28.1-16.2 34.4-66.7 19.9-130.1 62-19.1 102.5-49.9 102.5-82.3zm-130.2-66.7c-3.7 12.9-8.3 26.2-13.5 39.5-4.1-8-8.4-16-13.1-24-4.6-8-9.5-15.8-14.4-23.4 14.2 2.1 27.9 4.7 41 7.9zm-45.8 106.5c-7.8 13.5-15.8 26.3-24.1 38.2-14.9 1.3-30 2-45.2 2-15.1 0-30.2-.7-45-1.9-8.3-11.9-16.4-24.6-24.2-38-7.6-13.1-14.5-26.4-20.8-39.8 6.2-13.4 13.2-26.8 20.7-39.9 7.8-13.5 15.8-26.3 24.1-38.2 14.9-1.3 30-2 45.2-2 15.1 0 30.2.7 45 1.9 8.3 11.9 16.4 24.6 24.2 38 7.6 13.1 14.5 26.4 20.8 39.8-6.3 13.4-13.2 26.8-20.7 39.9zm32.3-13c5.4 13.4 10 26.8 13.8 39.8-13.1 3.2-26.9 5.9-41.2 8 4.9-7.7 9.8-15.6 14.4-23.7 4.6-8 8.9-16.1 13-24.1zM421.2 430c-9.3-9.6-18.6-20.3-27.8-32 9 .4 18.2.7 27.5.7 9.4 0 18.7-.2 27.8-.7-9 11.7-18.3 22.4-27.5 32zm-74.4-58.9c-14.2-2.1-27.9-4.7-41-7.9 3.7-12.9 8.3-26.2 13.5-39.5 4.1 8 8.4 16 13.1 24 4.7 8 9.5 15.8 14.4 23.4zM420.7 163c9.3 9.6 18.6 20.3 27.8 32-9-.4-18.2-.7-27.5-.7-9.4 0-18.7.2-27.8.7 9-11.7 18.3-22.4 27.5-32zm-74 58.9c-4.9 7.7-9.8 15.6-14.4 23.7-4.6 8-8.9 16-13 24-5.4-13.4-10-26.8-13.8-39.8 13.1-3.1 26.9-5.8 41.2-7.9zm-90.5 125.2c-35.4-15.1-58.3-34.9-58.3-50.6 0-15.7 22.9-35.6 58.3-50.6 8.6-3.7 18-7 27.7-10.1 5.7 19.6 13.2 40 22.5 60.9-9.2 20.8-16.6 41.1-22.2 60.6-9.9-3.1-19.3-6.5-28-10.2zM310 490c-13.6-7.8-19.5-37.5-14.9-75.7 1.1-9.4 2.9-19.3 5.1-29.4 19.6 4.8 41 8.5 63.5 10.9 13.5 18.5 27.5 35.3 41.6 50-32.6 30.3-63.2 46.9-84 46.9-4.5-.1-8.3-1-11.3-2.7zm237.2-76.2c4.7 38.2-1.1 67.9-14.6 75.8-3 1.8-6.9 2.6-11.5 2.6-20.7 0-51.4-16.5-84-46.6 14-14.7 28-31.4 41.3-49.9 22.6-2.4 44-6.1 63.6-11 2.3 10.1 4.1 19.8 5.2 29.1zm38.5-66.7c-8.6 3.7-18 7-27.7 10.1-5.7-19.6-13.2-40-22.5-60.9 9.2-20.8 16.6-41.1 22.2-60.6 9.9 3.1 19.3 6.5 28.1 10.2 35.4 15.1 58.3 34.9 58.3 50.6-.1 15.7-23 35.6-58.4 50.6zM320.8 78.4z"/><circle cx="420.9" cy="296.5" r="45.7"/><path d="M520.5 78.1z"/></g></svg> -->

<svg version="1.1" xmlns="http://www.w3.org/2000/svg" xmlns:xlink="http://www.w3.org/1999/xlink" x="0px" y="0px" viewBox="0 0 259.1 51.5" xml:space="preserve" class="text-black fill-current w-[20rem] m:w-[26rem] js-i-logo" style="enable-background:new 0 0 259.1 51.5;"><g><polygon points="7.4,5.9 13.6,5.9 13.6,5.9 37.9,5.9 43,0 9,0 	" class="js-logo-p"></polygon><path d="M32.4,13.1H7.9l-2.3,0L0,35.1l0.1,0h6.1L10.3,19l22.2,0c1.4,0,2.7,0.6,3.6,1.7c0.9,1.1,1.1,2.5,0.7,3.9
			c-0.3,0.9-0.8,1.7-1.6,2.3c-0.8,0.6-1.7,0.9-2.7,0.9H13.3L8,51.5h6.1l4-17.8h14.3c2.3,0,4.5-0.7,6.3-2.1c1.8-1.3,3.1-3.2,3.7-5.4
			c0.9-3.1,0.3-6.4-1.7-9C38.8,14.6,35.7,13.1,32.4,13.1z" class="js-logo-p"></path><polygon points="73.7,24.4 76,24.4 76,19.6 80.4,19.6 80.4,17.5 76,17.5 76,14.8 81.6,14.8 81.6,12.6 73.7,12.6 	" class="js-logo-part" style="opacity: 1;"></polygon><rect x="88.4" y="12.6" width="2.3" height="11.9" class="js-logo-part" style="opacity: 1;"></rect><polygon points="102.4,21.1 99.5,12.6 96.9,12.6 101.3,24.4 103.6,24.4 107.9,12.6 105.4,12.6 	" class="js-logo-part" style="opacity: 1;"></polygon><polygon points="116.5,19.6 121.6,19.6 121.6,17.5 116.5,17.5 116.5,14.8 122.1,14.8 122.1,12.6 114.2,12.6 114.2,24.4 122.2,24.4 
			122.2,22.3 116.5,22.3 	" class="js-logo-part" style="opacity: 1;"></polygon><path d="M146.2,19.2c0.7-0.7,1.1-1.7,1.1-2.8c0-1-0.4-2-1.1-2.8c-0.8-0.8-2-1.2-3.1-1.1h-4.5v11.9h2.3v-4.1h2.2
			C144.2,20.4,145.3,20,146.2,19.2z M140.9,18.2v-3.5l2.1,0c0.1,0,0.1,0,0.2,0c0.9,0,1.7,0.8,1.7,1.7c0,0.1,0,0.1,0,0.2
			c-0.1,0.9-0.9,1.6-1.9,1.6H140.9z" class="js-logo-part" style="opacity: 1;"></path><polygon points="156,12.6 151.6,24.4 154.2,24.4 157.1,16 160.1,24.4 162.7,24.4 158.3,12.6 	" class="js-logo-part" style="opacity: 1;"></polygon><polygon points="167.2,14.8 170.4,14.8 170.4,24.5 172.7,24.5 172.7,14.8 175.9,14.8 175.9,12.6 167.2,12.6 	" class="js-logo-part" style="opacity: 1;"></polygon><polygon points="189.7,17.4 184.8,17.4 184.8,12.6 182.5,12.6 182.5,24.4 184.8,24.4 184.8,19.6 189.7,19.6 189.7,24.4 191.9,24.4 
			191.9,12.6 189.7,12.6 	" class="js-logo-part" style="opacity: 1;"></polygon><polygon points="210.6,20.6 208.1,12.6 205.9,12.6 203.3,20.6 200.8,12.6 198.2,12.6 202.2,24.4 204.4,24.4 207,16.6 209.5,24.4 
			211.8,24.4 215.8,12.6 213.2,12.6 	" class="js-logo-part" style="opacity: 1;"></polygon><polygon points="224.1,12.6 219.7,24.4 222.3,24.4 225.3,16 228.2,24.4 230.8,24.4 226.4,12.6 	" class="js-logo-part" style="opacity: 1;"></polygon><polygon points="239.4,17.5 236.7,12.6 234.1,12.6 238.3,19.9 238.3,24.4 240.6,24.4 240.6,19.9 244.8,12.6 242.2,12.6 	" class="js-logo-part" style="opacity: 1;"></polygon><path d="M254.9,17.3c-1.9-0.6-2.3-0.9-2.3-1.5c0-0.8,0.9-1.1,1.8-1.1c0.9,0,1.9,0.4,2,1.2l2-0.7c-0.3-1.7-2.2-2.7-4.1-2.7
			c-3.1,0-4.2,1.9-4.2,3.4c0,1.7,1.1,2.8,3.9,3.6c2,0.6,2.5,0.9,2.5,1.6c0,0.7-0.8,1.3-2.1,1.3c-1.1,0.1-2.1-0.5-2.5-1.5l-2.1,0.8
			c0.3,1.7,2.5,2.9,4.8,2.9c3,0,4.4-1.7,4.4-3.6h0C259.1,18.8,257.3,18,254.9,17.3z" class="js-logo-part" style="opacity: 1;"></path><polygon points="73.7,40.7 74.7,40.7 74.7,36.7 78.7,36.7 78.7,35.7 74.7,35.7 74.7,32.8 79.2,32.8 79.2,31.8 73.7,31.8 	" class="js-logo-part" style="opacity: 1;"></polygon><rect x="86.8" y="31.8" width="1.1" height="8.9" class="js-logo-part" style="opacity: 1;"></rect><path d="M102.4,38.4c0,0.1,0,0.1,0,0.2c0,0.1,0,0.1,0,0.2c0-0.1-0.1-0.1-0.1-0.2s-0.1-0.1-0.1-0.2c-1.1-1.2-2.2-2.4-3.3-3.5
			c-1.1-1.2-2.2-2.3-3.3-3.5v9.3h1.1v-6.5c0-0.1,0-0.1,0-0.2c0-0.1,0-0.1,0-0.2c0,0.1,0.1,0.1,0.1,0.2s0.1,0.1,0.1,0.2
			c1.1,1.2,2.2,2.3,3.3,3.5l3.3,3.5v-9.3h-1.1V38.4z" class="js-logo-part" style="opacity: 1;"></path><path d="M110.8,40.7h1.1c0.2-0.6,2.8-6.6,2.9-7c0,0,2.7,6.4,2.9,7h1.1l-4-9.3L110.8,40.7z" class="js-logo-part" style="opacity: 1;"></path><path d="M132.8,38.4c0,0.1,0,0.1,0,0.2c0,0.1,0,0.1,0,0.2c0-0.1-0.1-0.1-0.1-0.2s-0.1-0.1-0.1-0.2c-1.1-1.2-2.2-2.4-3.3-3.5
			c-1.1-1.2-2.2-2.3-3.3-3.5v9.3h1.1v-6.5c0-0.1,0-0.1,0-0.2c0-0.1,0-0.1,0-0.2c0,0.1,0.1,0.1,0.1,0.2s0.1,0.1,0.1,0.2
			c1.1,1.2,2.2,2.3,3.3,3.5l3.3,3.5v-9.3h-1.1V38.4z" class="js-logo-part" style="opacity: 1;"></path><path d="M143.3,33.8c0.3-0.3,0.7-0.6,1.1-0.8c0.4-0.2,0.9-0.3,1.4-0.3c0.3,0,0.6,0,0.9,0.1c0.3,0.1,0.6,0.2,0.8,0.4
			c0.1-0.1,0.2-0.3,0.3-0.4c0.1-0.1,0.2-0.3,0.3-0.4c-0.4-0.2-0.7-0.4-1.1-0.5c-0.4-0.1-0.8-0.2-1.2-0.2c-0.6,0-1.2,0.1-1.8,0.4
			c-0.5,0.2-1,0.6-1.5,1c-0.4,0.4-0.8,0.9-1,1.5c-0.2,0.6-0.4,1.2-0.4,1.8c0,0.6,0.1,1.2,0.4,1.8c0.2,0.5,0.6,1,1,1.4
			c0.4,0.4,0.9,0.7,1.5,1c0.6,0.2,1.2,0.4,1.8,0.4c0.4,0,0.8-0.1,1.2-0.2c0.4-0.1,0.8-0.3,1.1-0.5l-0.6-0.8v0
			c-0.5,0.3-1.1,0.5-1.8,0.5c-0.5,0-0.9-0.1-1.4-0.3c-0.4-0.2-0.8-0.4-1.1-0.8c-0.3-0.3-0.6-0.7-0.8-1.1c-0.4-0.9-0.4-1.9,0-2.8
			C142.7,34.5,143,34.1,143.3,33.8z" class="js-logo-part" style="opacity: 1;"></path><rect x="155.5" y="31.8" width="1.1" height="8.9" class="js-logo-part" style="opacity: 1;"></rect><path d="M163.8,40.7h1.1c0.2-0.6,2.8-6.6,2.9-7c0,0,2.7,6.4,2.9,7h1.1c-0.7-1.6-3.3-7.8-4-9.3C167.1,33,164.4,39.2,163.8,40.7z" class="js-logo-part" style="opacity: 1;"></path><polygon points="179.7,31.8 178.6,31.8 178.6,40.7 184.4,40.7 184.4,39.7 179.7,39.7 	" class="js-logo-part" style="opacity: 1;"></polygon></g></svg>